<mxfile host="app.diagrams.net" modified="2021-09-08T12:46:57.502Z" agent="5.0 (Windows NT 10.0; Win64; x64) AppleWebKit/537.36 (KHTML, like Gecko) Chrome/92.0.4515.159 Safari/537.36" etag="7AILfPwLsvaG8s9hfaNk" version="15.1.0" type="github">
  <diagram id="kgpKYQtTHZ0yAKxKKP6v" name="Page-1">
    <mxGraphModel dx="2062" dy="772" grid="0" gridSize="10" guides="1" tooltips="1" connect="1" arrows="1" fold="1" page="1" pageScale="1" pageWidth="1920" pageHeight="1200" math="0" shadow="0">
      <root>
        <mxCell id="0" />
        <mxCell id="1" parent="0" />
        <mxCell id="3nuBFxr9cyL0pnOWT2aG-1" value="Главная страница" style="shape=table;childLayout=tableLayout;rowLines=0;columnLines=0;startSize=40;html=1;whiteSpace=wrap;collapsible=0;recursiveResize=0;expand=0;fontStyle=1" parent="1" vertex="1">
          <mxGeometry x="92" y="72" width="868" height="579.4501037597656" as="geometry" />
        </mxCell>
        <mxCell id="3nuBFxr9cyL0pnOWT2aG-3" value="FRONT" style="swimlane;horizontal=0;points=[[0,0.5],[1,0.5]];portConstraint=eastwest;startSize=40;html=1;whiteSpace=wrap;collapsible=0;recursiveResize=0;expand=0;" parent="3nuBFxr9cyL0pnOWT2aG-1" vertex="1">
          <mxGeometry y="40" width="868" height="240" as="geometry" />
        </mxCell>
        <mxCell id="3nuBFxr9cyL0pnOWT2aG-4" value="" style="swimlane;connectable=0;startSize=0;html=1;whiteSpace=wrap;collapsible=0;recursiveResize=0;expand=0;fillColor=#fad9d5;strokeColor=#ae4132;" parent="3nuBFxr9cyL0pnOWT2aG-3" vertex="1">
          <mxGeometry x="40" width="731" height="240" as="geometry" />
        </mxCell>
        <mxCell id="O9_NndbSffxHWr62tqlg-5" value="&lt;div style=&quot;box-sizing: border-box ; width: 100% ; background: #e4e4e4 ; padding: 2px&quot;&gt;Вход&lt;/div&gt;" style="verticalAlign=top;align=left;overflow=fill;html=1;fillColor=#d5e8d4;strokeColor=#82b366;" parent="3nuBFxr9cyL0pnOWT2aG-4" vertex="1">
          <mxGeometry x="12" y="16" width="179" height="515" as="geometry" />
        </mxCell>
        <mxCell id="O9_NndbSffxHWr62tqlg-6" value="&lt;span&gt;Connect:&lt;/span&gt;&lt;br&gt;&lt;span&gt;get запрос по указанному URL&lt;/span&gt;" style="rounded=0;whiteSpace=wrap;html=1;fillColor=#f5f5f5;strokeColor=#666666;fontColor=#333333;" parent="3nuBFxr9cyL0pnOWT2aG-4" vertex="1">
          <mxGeometry x="18" y="41" width="166" height="60" as="geometry" />
        </mxCell>
        <mxCell id="O9_NndbSffxHWr62tqlg-8" value="Create:&lt;br&gt;post(get) запрос с данными пользователя" style="rounded=0;whiteSpace=wrap;html=1;fillColor=#dae8fc;strokeColor=#6c8ebf;" parent="3nuBFxr9cyL0pnOWT2aG-4" vertex="1">
          <mxGeometry x="18.5" y="107" width="166" height="60" as="geometry" />
        </mxCell>
        <mxCell id="O9_NndbSffxHWr62tqlg-9" value="Реализовать переключатель аватара: фото || буквы" style="rounded=0;whiteSpace=wrap;html=1;fillColor=#fad9d5;strokeColor=#ae4132;" parent="3nuBFxr9cyL0pnOWT2aG-4" vertex="1">
          <mxGeometry x="18.5" y="173" width="166" height="60" as="geometry" />
        </mxCell>
        <mxCell id="O9_NndbSffxHWr62tqlg-13" value="Connect:&lt;br&gt;отдать все данные о текущей сессии" style="rounded=0;whiteSpace=wrap;html=1;fillColor=#f5f5f5;strokeColor=#666666;fontColor=#333333;" parent="3nuBFxr9cyL0pnOWT2aG-4" vertex="1">
          <mxGeometry x="18.5" y="257" width="166" height="60" as="geometry" />
        </mxCell>
        <mxCell id="O9_NndbSffxHWr62tqlg-14" value="Create:&lt;br&gt;1. Сгенерировать лобби с дефолтными настройками&lt;br&gt;2. Редирект клиента на указанный URL" style="rounded=0;whiteSpace=wrap;html=1;fillColor=#dae8fc;strokeColor=#6c8ebf;" parent="3nuBFxr9cyL0pnOWT2aG-4" vertex="1">
          <mxGeometry x="19" y="323" width="166" height="95" as="geometry" />
        </mxCell>
        <mxCell id="O9_NndbSffxHWr62tqlg-25" value="&lt;div style=&quot;box-sizing: border-box ; width: 100% ; background: #e4e4e4 ; padding: 2px&quot;&gt;Вход&lt;/div&gt;" style="verticalAlign=top;align=left;overflow=fill;html=1;fillColor=#d5e8d4;strokeColor=#82b366;" parent="3nuBFxr9cyL0pnOWT2aG-4" vertex="1">
          <mxGeometry x="199" y="16" width="179" height="447" as="geometry" />
        </mxCell>
        <mxCell id="O9_NndbSffxHWr62tqlg-26" value="&lt;span&gt;Connect:&lt;/span&gt;&lt;br&gt;&lt;span&gt;get запрос по указанному URL&lt;/span&gt;" style="rounded=0;whiteSpace=wrap;html=1;fillColor=#f5f5f5;strokeColor=#666666;fontColor=#333333;" parent="3nuBFxr9cyL0pnOWT2aG-4" vertex="1">
          <mxGeometry x="205" y="41" width="166" height="60" as="geometry" />
        </mxCell>
        <mxCell id="O9_NndbSffxHWr62tqlg-27" value="" style="rounded=0;whiteSpace=wrap;html=1;fillColor=#dae8fc;strokeColor=#6c8ebf;" parent="3nuBFxr9cyL0pnOWT2aG-4" vertex="1">
          <mxGeometry x="205.5" y="107" width="166" height="60" as="geometry" />
        </mxCell>
        <mxCell id="O9_NndbSffxHWr62tqlg-28" value="" style="rounded=0;whiteSpace=wrap;html=1;fillColor=#fad9d5;strokeColor=#ae4132;" parent="3nuBFxr9cyL0pnOWT2aG-4" vertex="1">
          <mxGeometry x="205.5" y="173" width="166" height="60" as="geometry" />
        </mxCell>
        <mxCell id="O9_NndbSffxHWr62tqlg-29" value="" style="rounded=0;whiteSpace=wrap;html=1;fillColor=#f5f5f5;strokeColor=#666666;fontColor=#333333;" parent="3nuBFxr9cyL0pnOWT2aG-4" vertex="1">
          <mxGeometry x="205.5" y="257" width="166" height="60" as="geometry" />
        </mxCell>
        <mxCell id="O9_NndbSffxHWr62tqlg-30" value="" style="rounded=0;whiteSpace=wrap;html=1;fillColor=#dae8fc;strokeColor=#6c8ebf;" parent="3nuBFxr9cyL0pnOWT2aG-4" vertex="1">
          <mxGeometry x="206" y="323" width="166" height="60" as="geometry" />
        </mxCell>
        <mxCell id="O9_NndbSffxHWr62tqlg-31" value="" style="rounded=0;whiteSpace=wrap;html=1;fillColor=#fad9d5;strokeColor=#ae4132;" parent="3nuBFxr9cyL0pnOWT2aG-4" vertex="1">
          <mxGeometry x="206" y="389" width="166" height="60" as="geometry" />
        </mxCell>
        <mxCell id="O9_NndbSffxHWr62tqlg-32" value="&lt;div style=&quot;box-sizing: border-box ; width: 100% ; background: #e4e4e4 ; padding: 2px&quot;&gt;Вход&lt;/div&gt;" style="verticalAlign=top;align=left;overflow=fill;html=1;fillColor=#d5e8d4;strokeColor=#82b366;" parent="3nuBFxr9cyL0pnOWT2aG-4" vertex="1">
          <mxGeometry x="386" y="18" width="179" height="447" as="geometry" />
        </mxCell>
        <mxCell id="O9_NndbSffxHWr62tqlg-33" value="&lt;span&gt;Connect:&lt;/span&gt;&lt;br&gt;&lt;span&gt;get запрос по указанному URL&lt;/span&gt;" style="rounded=0;whiteSpace=wrap;html=1;fillColor=#f5f5f5;strokeColor=#666666;fontColor=#333333;" parent="3nuBFxr9cyL0pnOWT2aG-4" vertex="1">
          <mxGeometry x="392" y="43" width="166" height="60" as="geometry" />
        </mxCell>
        <mxCell id="O9_NndbSffxHWr62tqlg-34" value="" style="rounded=0;whiteSpace=wrap;html=1;fillColor=#dae8fc;strokeColor=#6c8ebf;" parent="3nuBFxr9cyL0pnOWT2aG-4" vertex="1">
          <mxGeometry x="392.5" y="109" width="166" height="60" as="geometry" />
        </mxCell>
        <mxCell id="O9_NndbSffxHWr62tqlg-35" value="" style="rounded=0;whiteSpace=wrap;html=1;fillColor=#fad9d5;strokeColor=#ae4132;" parent="3nuBFxr9cyL0pnOWT2aG-4" vertex="1">
          <mxGeometry x="392.5" y="175" width="166" height="60" as="geometry" />
        </mxCell>
        <mxCell id="O9_NndbSffxHWr62tqlg-36" value="" style="rounded=0;whiteSpace=wrap;html=1;fillColor=#f5f5f5;strokeColor=#666666;fontColor=#333333;" parent="3nuBFxr9cyL0pnOWT2aG-4" vertex="1">
          <mxGeometry x="392.5" y="259" width="166" height="60" as="geometry" />
        </mxCell>
        <mxCell id="O9_NndbSffxHWr62tqlg-37" value="" style="rounded=0;whiteSpace=wrap;html=1;fillColor=#dae8fc;strokeColor=#6c8ebf;" parent="3nuBFxr9cyL0pnOWT2aG-4" vertex="1">
          <mxGeometry x="393" y="325" width="166" height="60" as="geometry" />
        </mxCell>
        <mxCell id="O9_NndbSffxHWr62tqlg-38" value="" style="rounded=0;whiteSpace=wrap;html=1;fillColor=#fad9d5;strokeColor=#ae4132;" parent="3nuBFxr9cyL0pnOWT2aG-4" vertex="1">
          <mxGeometry x="393" y="391" width="166" height="60" as="geometry" />
        </mxCell>
        <mxCell id="3nuBFxr9cyL0pnOWT2aG-8" value="" style="swimlane;connectable=0;startSize=0;html=1;whiteSpace=wrap;collapsible=0;recursiveResize=0;expand=0;strokeColor=none;fillColor=none;" parent="3nuBFxr9cyL0pnOWT2aG-3" vertex="1">
          <mxGeometry x="771" width="44" height="240" as="geometry" />
        </mxCell>
        <mxCell id="3nuBFxr9cyL0pnOWT2aG-11" value="" style="swimlane;connectable=0;startSize=0;html=1;whiteSpace=wrap;collapsible=0;recursiveResize=0;expand=0;" parent="3nuBFxr9cyL0pnOWT2aG-3" vertex="1">
          <mxGeometry x="815" width="53" height="240" as="geometry" />
        </mxCell>
        <mxCell id="3nuBFxr9cyL0pnOWT2aG-15" value="BACK&lt;br&gt;" style="swimlane;horizontal=0;points=[[0,0.5],[1,0.5]];portConstraint=eastwest;startSize=40;html=1;whiteSpace=wrap;collapsible=0;recursiveResize=0;expand=0;" parent="3nuBFxr9cyL0pnOWT2aG-1" vertex="1">
          <mxGeometry y="280" width="868" height="299" as="geometry" />
        </mxCell>
        <mxCell id="3nuBFxr9cyL0pnOWT2aG-16" value="" style="swimlane;connectable=0;startSize=0;html=1;whiteSpace=wrap;collapsible=0;recursiveResize=0;expand=0;" parent="3nuBFxr9cyL0pnOWT2aG-15" vertex="1">
          <mxGeometry x="40" width="731" height="299" as="geometry" />
        </mxCell>
        <mxCell id="3nuBFxr9cyL0pnOWT2aG-18" value="" style="swimlane;connectable=0;startSize=0;html=1;whiteSpace=wrap;collapsible=0;recursiveResize=0;expand=0;" parent="3nuBFxr9cyL0pnOWT2aG-15" vertex="1">
          <mxGeometry x="771" width="44" height="299" as="geometry" />
        </mxCell>
        <mxCell id="3nuBFxr9cyL0pnOWT2aG-23" value="" style="swimlane;connectable=0;startSize=0;html=1;whiteSpace=wrap;collapsible=0;recursiveResize=0;expand=0;" parent="3nuBFxr9cyL0pnOWT2aG-15" vertex="1">
          <mxGeometry x="815" width="53" height="299" as="geometry" />
        </mxCell>
        <mxCell id="O9_NndbSffxHWr62tqlg-15" value="" style="rounded=0;whiteSpace=wrap;html=1;fillColor=#fad9d5;strokeColor=#ae4132;" parent="1" vertex="1">
          <mxGeometry x="151" y="551" width="166" height="60" as="geometry" />
        </mxCell>
        <mxCell id="O9_NndbSffxHWr62tqlg-41" value="Лобби" style="shape=table;childLayout=tableLayout;rowLines=0;columnLines=0;startSize=40;html=1;whiteSpace=wrap;collapsible=0;recursiveResize=0;expand=0;fontStyle=1;" parent="1" vertex="1">
          <mxGeometry x="101" y="690" width="1493.75" height="579.4501037597656" as="geometry" />
        </mxCell>
        <mxCell id="O9_NndbSffxHWr62tqlg-42" value="FRONT" style="swimlane;horizontal=0;points=[[0,0.5],[1,0.5]];portConstraint=eastwest;startSize=40;html=1;whiteSpace=wrap;collapsible=0;recursiveResize=0;expand=0;" parent="O9_NndbSffxHWr62tqlg-41" vertex="1">
          <mxGeometry y="40" width="1493.75" height="240" as="geometry" />
        </mxCell>
        <mxCell id="O9_NndbSffxHWr62tqlg-43" value="" style="swimlane;connectable=0;startSize=0;html=1;whiteSpace=wrap;collapsible=0;recursiveResize=0;expand=0;fillColor=#fad9d5;strokeColor=#ae4132;" parent="O9_NndbSffxHWr62tqlg-42" vertex="1">
          <mxGeometry x="40" width="1414" height="240" as="geometry" />
        </mxCell>
        <mxCell id="O9_NndbSffxHWr62tqlg-50" value="&lt;div style=&quot;box-sizing: border-box ; width: 100% ; background: #e4e4e4 ; padding: 2px&quot;&gt;Инфо о игре&lt;/div&gt;" style="verticalAlign=top;align=left;overflow=fill;html=1;fillColor=#d5e8d4;strokeColor=#82b366;" parent="O9_NndbSffxHWr62tqlg-43" vertex="1">
          <mxGeometry x="15" y="13" width="179" height="447" as="geometry" />
        </mxCell>
        <mxCell id="O9_NndbSffxHWr62tqlg-51" value="Scram master" style="rounded=0;whiteSpace=wrap;html=1;fillColor=#f5f5f5;strokeColor=#666666;fontColor=#333333;" parent="O9_NndbSffxHWr62tqlg-43" vertex="1">
          <mxGeometry x="21" y="38" width="166" height="60" as="geometry" />
        </mxCell>
        <mxCell id="O9_NndbSffxHWr62tqlg-52" value="Link to lobby (нажатие на кнопку просто копирует текущий url)" style="rounded=0;whiteSpace=wrap;html=1;fillColor=#dae8fc;strokeColor=#6c8ebf;" parent="O9_NndbSffxHWr62tqlg-43" vertex="1">
          <mxGeometry x="21.5" y="104" width="166" height="60" as="geometry" />
        </mxCell>
        <mxCell id="O9_NndbSffxHWr62tqlg-53" value="" style="rounded=0;whiteSpace=wrap;html=1;fillColor=#fad9d5;strokeColor=#ae4132;" parent="O9_NndbSffxHWr62tqlg-43" vertex="1">
          <mxGeometry x="21.5" y="170" width="166" height="60" as="geometry" />
        </mxCell>
        <mxCell id="O9_NndbSffxHWr62tqlg-54" value="Хранится в инфо о комнате" style="rounded=0;whiteSpace=wrap;html=1;fillColor=#f5f5f5;strokeColor=#666666;fontColor=#333333;" parent="O9_NndbSffxHWr62tqlg-43" vertex="1">
          <mxGeometry x="21.5" y="254" width="166" height="60" as="geometry" />
        </mxCell>
        <mxCell id="O9_NndbSffxHWr62tqlg-55" value="&lt;span style=&quot;color: rgb(51 , 51 , 51)&quot;&gt;Хранится в инфо о комнате (или вообще не хранить)&lt;/span&gt;" style="rounded=0;whiteSpace=wrap;html=1;fillColor=#dae8fc;strokeColor=#6c8ebf;" parent="O9_NndbSffxHWr62tqlg-43" vertex="1">
          <mxGeometry x="22" y="320" width="166" height="60" as="geometry" />
        </mxCell>
        <mxCell id="O9_NndbSffxHWr62tqlg-56" value="" style="rounded=0;whiteSpace=wrap;html=1;fillColor=#fad9d5;strokeColor=#ae4132;" parent="O9_NndbSffxHWr62tqlg-43" vertex="1">
          <mxGeometry x="22" y="386" width="166" height="60" as="geometry" />
        </mxCell>
        <mxCell id="O9_NndbSffxHWr62tqlg-71" value="&lt;div style=&quot;box-sizing: border-box ; width: 100% ; background: #e4e4e4 ; padding: 2px&quot;&gt;Участинки&lt;/div&gt;" style="verticalAlign=top;align=left;overflow=fill;html=1;fillColor=#d5e8d4;strokeColor=#82b366;" parent="O9_NndbSffxHWr62tqlg-43" vertex="1">
          <mxGeometry x="391" y="9" width="179" height="447" as="geometry" />
        </mxCell>
        <mxCell id="O9_NndbSffxHWr62tqlg-72" value="фото || заглавные&lt;br&gt;имя и позиций&lt;br&gt;&lt;span style=&quot;color: rgba(0 , 0 , 0 , 0) ; font-family: monospace ; font-size: 0px&quot;&gt;%3CmxGraphModel%3E%3Croot%3E%3CmxCell%20id%3D%220%22%2F%3E%3CmxCell%20id%3D%221%22%20parent%3D%220%22%2F%3E%3CmxCell%20id%3D%222%22%20value%3D%22%D0%98%D0%BC%D1%8F%20%D0%B8%20%D0%BF%D0%BE%D0%B7%D0%B8%D1%86%D0%B8%D1%8F%22%20style%3D%22rounded%3D0%3BwhiteSpace%3Dwrap%3Bhtml%3D1%3BfillColor%3D%23dae8fc%3BstrokeColor%3D%236c8ebf%3B%22%20vertex%3D%221%22%20parent%3D%221%22%3E%3CmxGeometry%20x%3D%22538.5%22%20y%3D%22830%22%20width%3D%22166%22%20height%3D%2260%22%20as%3D%22geometry%22%2F%3E%3C%2FmxCell%3E%3C%2Froot%3E%3C%2FmxGraphModel%3E&lt;/span&gt;&lt;span style=&quot;color: rgba(0 , 0 , 0 , 0) ; font-family: monospace ; font-size: 0px&quot;&gt;%3CmxGraphModel%3E%3Croot%3E%3CmxCell%20id%3D%220%22%2F%3E%3CmxCell%20id%3D%221%22%20parent%3D%220%22%2F%3E%3CmxCell%20id%3D%222%22%20value%3D%22%D0%98%D0%BC%D1%8F%20%D0%B8%20%D0%BF%D0%BE%D0%B7%D0%B8%D1%86%D0%B8%D1%8F%22%20style%3D%22rounded%3D0%3BwhiteSpace%3Dwrap%3Bhtml%3D1%3BfillColor%3D%23dae8fc%3BstrokeColor%3D%236c8ebf%3B%22%20vertex%3D%221%22%20parent%3D%221%22%3E%3CmxGeometry%20x%3D%22538.5%22%20y%3D%22830%22%20width%3D%22166%22%20height%3D%2260%22%20as%3D%22geometry%22%2F%3E%3C%2FmxCell%3E%3C%2Froot%3E%3C%2FmxGraphModel%3E&lt;/span&gt;&lt;br&gt;&lt;span style=&quot;color: rgba(0 , 0 , 0 , 0) ; font-family: monospace ; font-size: 0px&quot;&gt;%3CmxGraphModel%3E%3Croot%3E%3CmxCell%20id%3D%220%22%2F%3E%3CmxCell%20id%3D%221%22%20parent%3D%220%22%2F%3E%3CmxCell%20id%3D%222%22%20value%3D%22%D0%98%D0%BC%D1%8F%20%D0%B8%20%D0%BF%D0%BE%D0%B7%D0%B8%D1%86%D0%B8%D1%8F%22%20style%3D%22rounded%3D0%3BwhiteSpace%3Dwrap%3Bhtml%3D1%3BfillColor%3D%23dae8fc%3BstrokeColor%3D%236c8ebf%3B%22%20vertex%3D%221%22%20parent%3D%221%22%3E%3CmxGeometry%20x%3D%22538.5%22%20y%3D%22830%22%20width%3D%22166%22%20height%3D%2260%22%20as%3D%22geometry%22%2F%3E%3C%2FmxCell%3E%3C%2Froot%3E%3C%2FmxGraphModel%3E&lt;/span&gt;&lt;span style=&quot;color: rgba(0 , 0 , 0 , 0) ; font-family: monospace ; font-size: 0px&quot;&gt;%3CmxGraphModel%3E%3Croot%3E%3CmxCell%20id%3D%220%22%2F%3E%3CmxCell%20id%3D%221%22%20parent%3D%220%22%2F%3E%3CmxCell%20id%3D%222%22%20value%3D%22%D0%98%D0%BC%D1%8F%20%D0%B8%20%D0%BF%D0%BE%D0%B7%D0%B8%D1%86%D0%B8%D1%8F%22%20style%3D%22rounded%3D0%3BwhiteSpace%3Dwrap%3Bhtml%3D1%3BfillColor%3D%23dae8fc%3BstrokeColor%3D%236c8ebf%3B%22%20vertex%3D%221%22%20parent%3D%221%22%3E%3CmxGeometry%20x%3D%22538.5%22%20y%3D%22830%22%20width%3D%22166%22%20height%3D%2260%22%20as%3D%22geometry%22%2F%3E%3C%2FmxCell%3E%3C%2Froot%3E%3C%2FmxGraphModel%3E&lt;/span&gt;" style="rounded=0;whiteSpace=wrap;html=1;fillColor=#f5f5f5;strokeColor=#666666;fontColor=#333333;" parent="O9_NndbSffxHWr62tqlg-43" vertex="1">
          <mxGeometry x="397" y="34" width="166" height="60" as="geometry" />
        </mxCell>
        <mxCell id="O9_NndbSffxHWr62tqlg-73" value="Кнопка голосования &lt;br&gt;1. вызывает модалку.&lt;br&gt;2. Добавить ей смену цвета (за, против)" style="rounded=0;whiteSpace=wrap;html=1;fillColor=#dae8fc;strokeColor=#6c8ebf;" parent="O9_NndbSffxHWr62tqlg-43" vertex="1">
          <mxGeometry x="397.5" y="100" width="166" height="60" as="geometry" />
        </mxCell>
        <mxCell id="O9_NndbSffxHWr62tqlg-74" value="Модалка, которая отправляет результат голосования" style="rounded=0;whiteSpace=wrap;html=1;fillColor=#fad9d5;strokeColor=#ae4132;" parent="O9_NndbSffxHWr62tqlg-43" vertex="1">
          <mxGeometry x="397.5" y="166" width="166" height="60" as="geometry" />
        </mxCell>
        <mxCell id="O9_NndbSffxHWr62tqlg-75" value="-" style="rounded=0;whiteSpace=wrap;html=1;fillColor=#f5f5f5;strokeColor=#666666;fontColor=#333333;" parent="O9_NndbSffxHWr62tqlg-43" vertex="1">
          <mxGeometry x="397.5" y="250" width="166" height="60" as="geometry" />
        </mxCell>
        <mxCell id="O9_NndbSffxHWr62tqlg-107" value="" style="edgeStyle=orthogonalEdgeStyle;rounded=0;orthogonalLoop=1;jettySize=auto;html=1;" parent="O9_NndbSffxHWr62tqlg-43" source="O9_NndbSffxHWr62tqlg-76" target="O9_NndbSffxHWr62tqlg-77" edge="1">
          <mxGeometry relative="1" as="geometry" />
        </mxCell>
        <mxCell id="O9_NndbSffxHWr62tqlg-76" value="После каждого голоса отпралять информацию:&lt;br&gt;1. Кто проголосовал&lt;br&gt;2. Результат голосования" style="rounded=0;whiteSpace=wrap;html=1;fillColor=#dae8fc;strokeColor=#6c8ebf;" parent="O9_NndbSffxHWr62tqlg-43" vertex="1">
          <mxGeometry x="398" y="316" width="166" height="60" as="geometry" />
        </mxCell>
        <mxCell id="O9_NndbSffxHWr62tqlg-77" value="1. Уведомить пользоватей о госоловании&lt;br&gt;2. Инициировать перерисовку списка участников" style="rounded=0;whiteSpace=wrap;html=1;fillColor=#fad9d5;strokeColor=#ae4132;" parent="O9_NndbSffxHWr62tqlg-43" vertex="1">
          <mxGeometry x="398" y="382" width="166" height="72" as="geometry" />
        </mxCell>
        <mxCell id="O9_NndbSffxHWr62tqlg-78" value="&lt;div style=&quot;box-sizing: border-box ; width: 100% ; background: #e4e4e4 ; padding: 2px&quot;&gt;Кнопки управления игрой&lt;/div&gt;" style="verticalAlign=top;align=left;overflow=fill;html=1;fillColor=#d5e8d4;strokeColor=#82b366;" parent="O9_NndbSffxHWr62tqlg-43" vertex="1">
          <mxGeometry x="205" y="13" width="179" height="447" as="geometry" />
        </mxCell>
        <mxCell id="O9_NndbSffxHWr62tqlg-79" value="Start game&lt;br&gt;1. Меняем URL?&lt;br&gt;2. POST запрос на сервер о смене режима, settings и issues" style="rounded=0;whiteSpace=wrap;html=1;fillColor=#f5f5f5;strokeColor=#666666;fontColor=#333333;" parent="O9_NndbSffxHWr62tqlg-43" vertex="1">
          <mxGeometry x="211" y="38" width="166" height="83" as="geometry" />
        </mxCell>
        <mxCell id="O9_NndbSffxHWr62tqlg-80" value="Cancel game:&lt;br&gt;1. Вызвать модалку подтвеждения/уведомления&lt;br&gt;2. Редирект на гланую" style="rounded=0;whiteSpace=wrap;html=1;fillColor=#dae8fc;strokeColor=#6c8ebf;" parent="O9_NndbSffxHWr62tqlg-43" vertex="1">
          <mxGeometry x="211.5" y="135" width="166" height="60" as="geometry" />
        </mxCell>
        <mxCell id="O9_NndbSffxHWr62tqlg-81" value="" style="rounded=0;whiteSpace=wrap;html=1;fillColor=#fad9d5;strokeColor=#ae4132;" parent="O9_NndbSffxHWr62tqlg-43" vertex="1">
          <mxGeometry x="214" y="205" width="166" height="27" as="geometry" />
        </mxCell>
        <mxCell id="O9_NndbSffxHWr62tqlg-82" value="Произвести запись о изменении статуса" style="rounded=0;whiteSpace=wrap;html=1;fillColor=#f5f5f5;strokeColor=#666666;fontColor=#333333;" parent="O9_NndbSffxHWr62tqlg-43" vertex="1">
          <mxGeometry x="211.5" y="254" width="166" height="60" as="geometry" />
        </mxCell>
        <mxCell id="O9_NndbSffxHWr62tqlg-83" value="1.&amp;nbsp;&lt;span style=&quot;color: rgb(51 , 51 , 51)&quot;&gt;Произвести запись о изменении статуса&lt;br&gt;2. Тут надо придумать как вернуть на клиент статус&lt;br&gt;&lt;/span&gt;" style="rounded=0;whiteSpace=wrap;html=1;fillColor=#dae8fc;strokeColor=#6c8ebf;" parent="O9_NndbSffxHWr62tqlg-43" vertex="1">
          <mxGeometry x="212" y="320" width="166" height="60" as="geometry" />
        </mxCell>
        <mxCell id="O9_NndbSffxHWr62tqlg-84" value="" style="rounded=0;whiteSpace=wrap;html=1;fillColor=#fad9d5;strokeColor=#ae4132;" parent="O9_NndbSffxHWr62tqlg-43" vertex="1">
          <mxGeometry x="212" y="386" width="166" height="60" as="geometry" />
        </mxCell>
        <mxCell id="O9_NndbSffxHWr62tqlg-85" value="&lt;div style=&quot;box-sizing: border-box ; width: 100% ; background: #e4e4e4 ; padding: 2px&quot;&gt;Issues&lt;/div&gt;" style="verticalAlign=top;align=left;overflow=fill;html=1;fillColor=#d5e8d4;strokeColor=#82b366;" parent="O9_NndbSffxHWr62tqlg-43" vertex="1">
          <mxGeometry x="580" y="9" width="179" height="447" as="geometry" />
        </mxCell>
        <mxCell id="O9_NndbSffxHWr62tqlg-86" value="Вывети название и приоритет" style="rounded=0;whiteSpace=wrap;html=1;fillColor=#f5f5f5;strokeColor=#666666;fontColor=#333333;" parent="O9_NndbSffxHWr62tqlg-43" vertex="1">
          <mxGeometry x="586" y="34" width="166" height="60" as="geometry" />
        </mxCell>
        <mxCell id="O9_NndbSffxHWr62tqlg-87" value="Кнопка редактирвоания:&lt;br&gt;1. Вызывает модалку редактирвания" style="rounded=0;whiteSpace=wrap;html=1;fillColor=#dae8fc;strokeColor=#6c8ebf;" parent="O9_NndbSffxHWr62tqlg-43" vertex="1">
          <mxGeometry x="586.5" y="100" width="166" height="60" as="geometry" />
        </mxCell>
        <mxCell id="O9_NndbSffxHWr62tqlg-88" value="Кнопка удаления:&lt;br&gt;1. после апрува отправляет запрос о факте удаления" style="rounded=0;whiteSpace=wrap;html=1;fillColor=#fad9d5;strokeColor=#ae4132;" parent="O9_NndbSffxHWr62tqlg-43" vertex="1">
          <mxGeometry x="586.5" y="166" width="166" height="60" as="geometry" />
        </mxCell>
        <mxCell id="O9_NndbSffxHWr62tqlg-89" value="-" style="rounded=0;whiteSpace=wrap;html=1;fillColor=#f5f5f5;strokeColor=#666666;fontColor=#333333;" parent="O9_NndbSffxHWr62tqlg-43" vertex="1">
          <mxGeometry x="586.5" y="250" width="166" height="60" as="geometry" />
        </mxCell>
        <mxCell id="O9_NndbSffxHWr62tqlg-90" value="-" style="rounded=0;whiteSpace=wrap;html=1;fillColor=#dae8fc;strokeColor=#6c8ebf;" parent="O9_NndbSffxHWr62tqlg-43" vertex="1">
          <mxGeometry x="587" y="316" width="166" height="60" as="geometry" />
        </mxCell>
        <mxCell id="O9_NndbSffxHWr62tqlg-91" value="-&lt;br&gt;(если останется время, допилить чтоб до игры был виден список issues)" style="rounded=0;whiteSpace=wrap;html=1;fillColor=#fad9d5;strokeColor=#ae4132;" parent="O9_NndbSffxHWr62tqlg-43" vertex="1">
          <mxGeometry x="587" y="382" width="166" height="60" as="geometry" />
        </mxCell>
        <mxCell id="O9_NndbSffxHWr62tqlg-92" value="&lt;div style=&quot;box-sizing: border-box ; width: 100% ; background: #e4e4e4 ; padding: 2px&quot;&gt;Settings&lt;/div&gt;" style="verticalAlign=top;align=left;overflow=fill;html=1;fillColor=#d5e8d4;strokeColor=#82b366;" parent="O9_NndbSffxHWr62tqlg-43" vertex="1">
          <mxGeometry x="767" y="11" width="179" height="447" as="geometry" />
        </mxCell>
        <mxCell id="O9_NndbSffxHWr62tqlg-93" value="Переключатели" style="rounded=0;whiteSpace=wrap;html=1;fillColor=#f5f5f5;strokeColor=#666666;fontColor=#333333;" parent="O9_NndbSffxHWr62tqlg-43" vertex="1">
          <mxGeometry x="773" y="36" width="166" height="60" as="geometry" />
        </mxCell>
        <mxCell id="O9_NndbSffxHWr62tqlg-94" value="Текстфилды" style="rounded=0;whiteSpace=wrap;html=1;fillColor=#dae8fc;strokeColor=#6c8ebf;" parent="O9_NndbSffxHWr62tqlg-43" vertex="1">
          <mxGeometry x="773.5" y="102" width="166" height="60" as="geometry" />
        </mxCell>
        <mxCell id="O9_NndbSffxHWr62tqlg-95" value="Валидированый интут для времени" style="rounded=0;whiteSpace=wrap;html=1;fillColor=#fad9d5;strokeColor=#ae4132;" parent="O9_NndbSffxHWr62tqlg-43" vertex="1">
          <mxGeometry x="773.5" y="168" width="166" height="60" as="geometry" />
        </mxCell>
        <mxCell id="O9_NndbSffxHWr62tqlg-96" value="-" style="rounded=0;whiteSpace=wrap;html=1;fillColor=#f5f5f5;strokeColor=#666666;fontColor=#333333;" parent="O9_NndbSffxHWr62tqlg-43" vertex="1">
          <mxGeometry x="773.5" y="252" width="166" height="60" as="geometry" />
        </mxCell>
        <mxCell id="O9_NndbSffxHWr62tqlg-97" value="-" style="rounded=0;whiteSpace=wrap;html=1;fillColor=#dae8fc;strokeColor=#6c8ebf;" parent="O9_NndbSffxHWr62tqlg-43" vertex="1">
          <mxGeometry x="774" y="318" width="166" height="60" as="geometry" />
        </mxCell>
        <mxCell id="O9_NndbSffxHWr62tqlg-98" value="-" style="rounded=0;whiteSpace=wrap;html=1;fillColor=#fad9d5;strokeColor=#ae4132;" parent="O9_NndbSffxHWr62tqlg-43" vertex="1">
          <mxGeometry x="774" y="384" width="166" height="60" as="geometry" />
        </mxCell>
        <mxCell id="O9_NndbSffxHWr62tqlg-99" value="&lt;div style=&quot;box-sizing: border-box ; width: 100% ; background: #e4e4e4 ; padding: 2px&quot;&gt;Cars values (part of settings)&lt;/div&gt;" style="verticalAlign=top;align=left;overflow=fill;html=1;fillColor=#d5e8d4;strokeColor=#82b366;" parent="O9_NndbSffxHWr62tqlg-43" vertex="1">
          <mxGeometry x="954" y="13" width="179" height="447" as="geometry" />
        </mxCell>
        <mxCell id="O9_NndbSffxHWr62tqlg-100" value="Список выбраных карт (кофе есть сразу)" style="rounded=0;whiteSpace=wrap;html=1;fillColor=#f5f5f5;strokeColor=#666666;fontColor=#333333;" parent="O9_NndbSffxHWr62tqlg-43" vertex="1">
          <mxGeometry x="960" y="38" width="166" height="60" as="geometry" />
        </mxCell>
        <mxCell id="O9_NndbSffxHWr62tqlg-101" value="Кнопка добавления добавляет карту с числом максимальным + 1" style="rounded=0;whiteSpace=wrap;html=1;fillColor=#dae8fc;strokeColor=#6c8ebf;" parent="O9_NndbSffxHWr62tqlg-43" vertex="1">
          <mxGeometry x="960.5" y="104" width="166" height="60" as="geometry" />
        </mxCell>
        <mxCell id="O9_NndbSffxHWr62tqlg-102" value="Карандаш делает активным интут на карте для смены числа" style="rounded=0;whiteSpace=wrap;html=1;fillColor=#fad9d5;strokeColor=#ae4132;" parent="O9_NndbSffxHWr62tqlg-43" vertex="1">
          <mxGeometry x="960.5" y="170" width="166" height="60" as="geometry" />
        </mxCell>
        <mxCell id="O9_NndbSffxHWr62tqlg-103" value="-" style="rounded=0;whiteSpace=wrap;html=1;fillColor=#f5f5f5;strokeColor=#666666;fontColor=#333333;" parent="O9_NndbSffxHWr62tqlg-43" vertex="1">
          <mxGeometry x="960.5" y="254" width="166" height="60" as="geometry" />
        </mxCell>
        <mxCell id="O9_NndbSffxHWr62tqlg-104" value="-" style="rounded=0;whiteSpace=wrap;html=1;fillColor=#dae8fc;strokeColor=#6c8ebf;" parent="O9_NndbSffxHWr62tqlg-43" vertex="1">
          <mxGeometry x="961" y="320" width="166" height="60" as="geometry" />
        </mxCell>
        <mxCell id="O9_NndbSffxHWr62tqlg-105" value="-" style="rounded=0;whiteSpace=wrap;html=1;fillColor=#fad9d5;strokeColor=#ae4132;" parent="O9_NndbSffxHWr62tqlg-43" vertex="1">
          <mxGeometry x="961" y="386" width="166" height="60" as="geometry" />
        </mxCell>
        <mxCell id="O9_NndbSffxHWr62tqlg-64" value="" style="swimlane;connectable=0;startSize=0;html=1;whiteSpace=wrap;collapsible=0;recursiveResize=0;expand=0;strokeColor=none;fillColor=none;" parent="O9_NndbSffxHWr62tqlg-42" vertex="1">
          <mxGeometry x="1454" width="20" height="240" as="geometry" />
        </mxCell>
        <mxCell id="O9_NndbSffxHWr62tqlg-65" value="" style="swimlane;connectable=0;startSize=0;html=1;whiteSpace=wrap;collapsible=0;recursiveResize=0;expand=0;" parent="O9_NndbSffxHWr62tqlg-42" vertex="1">
          <mxGeometry x="1474" width="20" height="240" as="geometry" />
        </mxCell>
        <mxCell id="O9_NndbSffxHWr62tqlg-66" value="BACK&lt;br&gt;" style="swimlane;horizontal=0;points=[[0,0.5],[1,0.5]];portConstraint=eastwest;startSize=40;html=1;whiteSpace=wrap;collapsible=0;recursiveResize=0;expand=0;" parent="O9_NndbSffxHWr62tqlg-41" vertex="1">
          <mxGeometry y="280" width="1493.75" height="299" as="geometry" />
        </mxCell>
        <mxCell id="O9_NndbSffxHWr62tqlg-67" value="" style="swimlane;connectable=0;startSize=0;html=1;whiteSpace=wrap;collapsible=0;recursiveResize=0;expand=0;" parent="O9_NndbSffxHWr62tqlg-66" vertex="1">
          <mxGeometry x="40" width="1414" height="299" as="geometry" />
        </mxCell>
        <mxCell id="O9_NndbSffxHWr62tqlg-68" value="" style="swimlane;connectable=0;startSize=0;html=1;whiteSpace=wrap;collapsible=0;recursiveResize=0;expand=0;" parent="O9_NndbSffxHWr62tqlg-66" vertex="1">
          <mxGeometry x="1454" width="20" height="299" as="geometry" />
        </mxCell>
        <mxCell id="O9_NndbSffxHWr62tqlg-69" value="" style="swimlane;connectable=0;startSize=0;html=1;whiteSpace=wrap;collapsible=0;recursiveResize=0;expand=0;" parent="O9_NndbSffxHWr62tqlg-66" vertex="1">
          <mxGeometry x="1474" width="20" height="299" as="geometry" />
        </mxCell>
        <mxCell id="E8u7LmP7SIl81E1_KLwE-1" value="Игра (надо ли для неё отдельный роут? )" style="shape=table;childLayout=tableLayout;rowLines=0;columnLines=0;startSize=40;html=1;whiteSpace=wrap;collapsible=0;recursiveResize=0;expand=0;fontStyle=1;fillColor=#fad7ac;strokeColor=#b46504;" vertex="1" parent="1">
          <mxGeometry x="103" y="1291" width="1493.75" height="638" as="geometry" />
        </mxCell>
        <mxCell id="E8u7LmP7SIl81E1_KLwE-2" value="FRONT" style="swimlane;horizontal=0;points=[[0,0.5],[1,0.5]];portConstraint=eastwest;startSize=40;html=1;whiteSpace=wrap;collapsible=0;recursiveResize=0;expand=0;" vertex="1" parent="E8u7LmP7SIl81E1_KLwE-1">
          <mxGeometry y="40" width="1493.75" height="250" as="geometry" />
        </mxCell>
        <mxCell id="E8u7LmP7SIl81E1_KLwE-3" value="" style="swimlane;connectable=0;startSize=0;html=1;whiteSpace=wrap;collapsible=0;recursiveResize=0;expand=0;fillColor=#fad7ac;strokeColor=#b46504;" vertex="1" parent="E8u7LmP7SIl81E1_KLwE-2">
          <mxGeometry x="40" width="1414" height="250" as="geometry" />
        </mxCell>
        <mxCell id="E8u7LmP7SIl81E1_KLwE-4" value="&lt;div style=&quot;box-sizing: border-box ; width: 100% ; background: #e4e4e4 ; padding: 2px&quot;&gt;Инфо о игре&lt;/div&gt;" style="verticalAlign=top;align=left;overflow=fill;html=1;fillColor=#d5e8d4;strokeColor=#82b366;" vertex="1" parent="E8u7LmP7SIl81E1_KLwE-3">
          <mxGeometry x="15" y="13" width="179" height="565" as="geometry" />
        </mxCell>
        <mxCell id="E8u7LmP7SIl81E1_KLwE-5" value="Scram master" style="rounded=0;whiteSpace=wrap;html=1;fillColor=#f5f5f5;strokeColor=#666666;fontColor=#333333;" vertex="1" parent="E8u7LmP7SIl81E1_KLwE-3">
          <mxGeometry x="21" y="38" width="166" height="60" as="geometry" />
        </mxCell>
        <mxCell id="E8u7LmP7SIl81E1_KLwE-6" value="" style="rounded=0;whiteSpace=wrap;html=1;fillColor=#dae8fc;strokeColor=#6c8ebf;" vertex="1" parent="E8u7LmP7SIl81E1_KLwE-3">
          <mxGeometry x="21.5" y="104" width="166" height="60" as="geometry" />
        </mxCell>
        <mxCell id="E8u7LmP7SIl81E1_KLwE-7" value="" style="rounded=0;whiteSpace=wrap;html=1;fillColor=#fad9d5;strokeColor=#ae4132;" vertex="1" parent="E8u7LmP7SIl81E1_KLwE-3">
          <mxGeometry x="21.5" y="170" width="166" height="60" as="geometry" />
        </mxCell>
        <mxCell id="E8u7LmP7SIl81E1_KLwE-11" value="&lt;div style=&quot;box-sizing: border-box ; width: 100% ; background: #e4e4e4 ; padding: 2px&quot;&gt;Участинки&lt;/div&gt;" style="verticalAlign=top;align=left;overflow=fill;html=1;fillColor=#d5e8d4;strokeColor=#82b366;" vertex="1" parent="E8u7LmP7SIl81E1_KLwE-3">
          <mxGeometry x="391" y="9" width="179" height="572" as="geometry" />
        </mxCell>
        <mxCell id="E8u7LmP7SIl81E1_KLwE-12" value="фото || заглавные&lt;br&gt;имя и позиций&lt;br&gt;&lt;span style=&quot;color: rgba(0 , 0 , 0 , 0) ; font-family: monospace ; font-size: 0px&quot;&gt;%3CmxGraphModel%3E%3Croot%3E%3CmxCell%20id%3D%220%22%2F%3E%3CmxCell%20id%3D%221%22%20parent%3D%220%22%2F%3E%3CmxCell%20id%3D%222%22%20value%3D%22%D0%98%D0%BC%D1%8F%20%D0%B8%20%D0%BF%D0%BE%D0%B7%D0%B8%D1%86%D0%B8%D1%8F%22%20style%3D%22rounded%3D0%3BwhiteSpace%3Dwrap%3Bhtml%3D1%3BfillColor%3D%23dae8fc%3BstrokeColor%3D%236c8ebf%3B%22%20vertex%3D%221%22%20parent%3D%221%22%3E%3CmxGeometry%20x%3D%22538.5%22%20y%3D%22830%22%20width%3D%22166%22%20height%3D%2260%22%20as%3D%22geometry%22%2F%3E%3C%2FmxCell%3E%3C%2Froot%3E%3C%2FmxGraphModel%3E&lt;/span&gt;&lt;span style=&quot;color: rgba(0 , 0 , 0 , 0) ; font-family: monospace ; font-size: 0px&quot;&gt;%3CmxGraphModel%3E%3Croot%3E%3CmxCell%20id%3D%220%22%2F%3E%3CmxCell%20id%3D%221%22%20parent%3D%220%22%2F%3E%3CmxCell%20id%3D%222%22%20value%3D%22%D0%98%D0%BC%D1%8F%20%D0%B8%20%D0%BF%D0%BE%D0%B7%D0%B8%D1%86%D0%B8%D1%8F%22%20style%3D%22rounded%3D0%3BwhiteSpace%3Dwrap%3Bhtml%3D1%3BfillColor%3D%23dae8fc%3BstrokeColor%3D%236c8ebf%3B%22%20vertex%3D%221%22%20parent%3D%221%22%3E%3CmxGeometry%20x%3D%22538.5%22%20y%3D%22830%22%20width%3D%22166%22%20height%3D%2260%22%20as%3D%22geometry%22%2F%3E%3C%2FmxCell%3E%3C%2Froot%3E%3C%2FmxGraphModel%3E&lt;/span&gt;&lt;br&gt;&lt;span style=&quot;color: rgba(0 , 0 , 0 , 0) ; font-family: monospace ; font-size: 0px&quot;&gt;%3CmxGraphModel%3E%3Croot%3E%3CmxCell%20id%3D%220%22%2F%3E%3CmxCell%20id%3D%221%22%20parent%3D%220%22%2F%3E%3CmxCell%20id%3D%222%22%20value%3D%22%D0%98%D0%BC%D1%8F%20%D0%B8%20%D0%BF%D0%BE%D0%B7%D0%B8%D1%86%D0%B8%D1%8F%22%20style%3D%22rounded%3D0%3BwhiteSpace%3Dwrap%3Bhtml%3D1%3BfillColor%3D%23dae8fc%3BstrokeColor%3D%236c8ebf%3B%22%20vertex%3D%221%22%20parent%3D%221%22%3E%3CmxGeometry%20x%3D%22538.5%22%20y%3D%22830%22%20width%3D%22166%22%20height%3D%2260%22%20as%3D%22geometry%22%2F%3E%3C%2FmxCell%3E%3C%2Froot%3E%3C%2FmxGraphModel%3E&lt;/span&gt;&lt;span style=&quot;color: rgba(0 , 0 , 0 , 0) ; font-family: monospace ; font-size: 0px&quot;&gt;%3CmxGraphModel%3E%3Croot%3E%3CmxCell%20id%3D%220%22%2F%3E%3CmxCell%20id%3D%221%22%20parent%3D%220%22%2F%3E%3CmxCell%20id%3D%222%22%20value%3D%22%D0%98%D0%BC%D1%8F%20%D0%B8%20%D0%BF%D0%BE%D0%B7%D0%B8%D1%86%D0%B8%D1%8F%22%20style%3D%22rounded%3D0%3BwhiteSpace%3Dwrap%3Bhtml%3D1%3BfillColor%3D%23dae8fc%3BstrokeColor%3D%236c8ebf%3B%22%20vertex%3D%221%22%20parent%3D%221%22%3E%3CmxGeometry%20x%3D%22538.5%22%20y%3D%22830%22%20width%3D%22166%22%20height%3D%2260%22%20as%3D%22geometry%22%2F%3E%3C%2FmxCell%3E%3C%2Froot%3E%3C%2FmxGraphModel%3E&lt;/span&gt;" style="rounded=0;whiteSpace=wrap;html=1;fillColor=#f5f5f5;strokeColor=#666666;fontColor=#333333;" vertex="1" parent="E8u7LmP7SIl81E1_KLwE-3">
          <mxGeometry x="397" y="34" width="166" height="60" as="geometry" />
        </mxCell>
        <mxCell id="E8u7LmP7SIl81E1_KLwE-13" value="Кнопка голосования &lt;br&gt;1. вызывает модалку.&lt;br&gt;2. Добавить ей смену цвета (за, против)" style="rounded=0;whiteSpace=wrap;html=1;fillColor=#dae8fc;strokeColor=#6c8ebf;" vertex="1" parent="E8u7LmP7SIl81E1_KLwE-3">
          <mxGeometry x="397.5" y="100" width="166" height="60" as="geometry" />
        </mxCell>
        <mxCell id="E8u7LmP7SIl81E1_KLwE-14" value="Модалка, которая отправляет результат голосования" style="rounded=0;whiteSpace=wrap;html=1;fillColor=#fad9d5;strokeColor=#ae4132;" vertex="1" parent="E8u7LmP7SIl81E1_KLwE-3">
          <mxGeometry x="397.5" y="166" width="166" height="60" as="geometry" />
        </mxCell>
        <mxCell id="E8u7LmP7SIl81E1_KLwE-19" value="&lt;div style=&quot;box-sizing: border-box ; width: 100% ; background: #e4e4e4 ; padding: 2px&quot;&gt;Кнопки управления игрой&lt;/div&gt;" style="verticalAlign=top;align=left;overflow=fill;html=1;fillColor=#d5e8d4;strokeColor=#82b366;" vertex="1" parent="E8u7LmP7SIl81E1_KLwE-3">
          <mxGeometry x="205" y="13" width="179" height="566" as="geometry" />
        </mxCell>
        <mxCell id="E8u7LmP7SIl81E1_KLwE-20" value="exit(user only)&lt;br&gt;1.&amp;nbsp; Вызывает модалку, которая редиректир на main page&lt;br&gt;2. Отправляет уведомление на сервер о выходе" style="rounded=0;whiteSpace=wrap;html=1;fillColor=#f5f5f5;strokeColor=#666666;fontColor=#333333;" vertex="1" parent="E8u7LmP7SIl81E1_KLwE-3">
          <mxGeometry x="211" y="38" width="166" height="83" as="geometry" />
        </mxCell>
        <mxCell id="E8u7LmP7SIl81E1_KLwE-21" value="Stop game:&lt;br&gt;1. Вызвать модалку подтвеждения/уведомления&lt;br&gt;2. Редирект на гланую" style="rounded=0;whiteSpace=wrap;html=1;fillColor=#dae8fc;strokeColor=#6c8ebf;" vertex="1" parent="E8u7LmP7SIl81E1_KLwE-3">
          <mxGeometry x="211.5" y="135" width="166" height="60" as="geometry" />
        </mxCell>
        <mxCell id="E8u7LmP7SIl81E1_KLwE-22" value="" style="rounded=0;whiteSpace=wrap;html=1;fillColor=#fad9d5;strokeColor=#ae4132;" vertex="1" parent="E8u7LmP7SIl81E1_KLwE-3">
          <mxGeometry x="214" y="205" width="166" height="27" as="geometry" />
        </mxCell>
        <mxCell id="E8u7LmP7SIl81E1_KLwE-26" value="&lt;div style=&quot;box-sizing: border-box ; width: 100% ; background: #e4e4e4 ; padding: 2px&quot;&gt;Issues&lt;/div&gt;" style="verticalAlign=top;align=left;overflow=fill;html=1;fillColor=#d5e8d4;strokeColor=#82b366;" vertex="1" parent="E8u7LmP7SIl81E1_KLwE-3">
          <mxGeometry x="580" y="9" width="179" height="572" as="geometry" />
        </mxCell>
        <mxCell id="E8u7LmP7SIl81E1_KLwE-27" value="Вывети название, &lt;b&gt;текущая позиция &lt;/b&gt;и приоритет" style="rounded=0;whiteSpace=wrap;html=1;fillColor=#f5f5f5;strokeColor=#666666;fontColor=#333333;" vertex="1" parent="E8u7LmP7SIl81E1_KLwE-3">
          <mxGeometry x="586" y="34" width="166" height="60" as="geometry" />
        </mxCell>
        <mxCell id="E8u7LmP7SIl81E1_KLwE-28" value="Таймер обратного отчета" style="rounded=0;whiteSpace=wrap;html=1;fillColor=#dae8fc;strokeColor=#6c8ebf;" vertex="1" parent="E8u7LmP7SIl81E1_KLwE-3">
          <mxGeometry x="586.5" y="100" width="166" height="60" as="geometry" />
        </mxCell>
        <mxCell id="E8u7LmP7SIl81E1_KLwE-29" value="Карточки со статистикой (запрос результата с сервера&amp;nbsp; по таймеру или после окончания раунда)" style="rounded=0;whiteSpace=wrap;html=1;fillColor=#fad9d5;strokeColor=#ae4132;" vertex="1" parent="E8u7LmP7SIl81E1_KLwE-3">
          <mxGeometry x="586.5" y="166" width="166" height="60" as="geometry" />
        </mxCell>
        <mxCell id="E8u7LmP7SIl81E1_KLwE-33" value="&lt;div style=&quot;box-sizing: border-box ; width: 100% ; background: #e4e4e4 ; padding: 2px&quot;&gt;Cards&lt;/div&gt;" style="verticalAlign=top;align=left;overflow=fill;html=1;fillColor=#d5e8d4;strokeColor=#82b366;" vertex="1" parent="E8u7LmP7SIl81E1_KLwE-3">
          <mxGeometry x="767" y="11" width="179" height="572" as="geometry" />
        </mxCell>
        <mxCell id="E8u7LmP7SIl81E1_KLwE-34" value="Отображается список доступных карт.&lt;br&gt;При клике она подсветчивается и отправляет данные на сервер" style="rounded=0;whiteSpace=wrap;html=1;fillColor=#f5f5f5;strokeColor=#666666;fontColor=#333333;" vertex="1" parent="E8u7LmP7SIl81E1_KLwE-3">
          <mxGeometry x="773" y="36" width="166" height="88" as="geometry" />
        </mxCell>
        <mxCell id="E8u7LmP7SIl81E1_KLwE-35" value="" style="rounded=0;whiteSpace=wrap;html=1;fillColor=#dae8fc;strokeColor=#6c8ebf;" vertex="1" parent="E8u7LmP7SIl81E1_KLwE-3">
          <mxGeometry x="773.5" y="164" width="166" height="22" as="geometry" />
        </mxCell>
        <mxCell id="E8u7LmP7SIl81E1_KLwE-36" value="" style="rounded=0;whiteSpace=wrap;html=1;fillColor=#fad9d5;strokeColor=#ae4132;" vertex="1" parent="E8u7LmP7SIl81E1_KLwE-3">
          <mxGeometry x="773.5" y="193" width="166" height="35" as="geometry" />
        </mxCell>
        <mxCell id="E8u7LmP7SIl81E1_KLwE-55" value="Score" style="rounded=0;whiteSpace=wrap;html=1;fillColor=#fad7ac;strokeColor=#b46504;" vertex="1" parent="E8u7LmP7SIl81E1_KLwE-3">
          <mxGeometry x="397" y="230" width="166" height="48" as="geometry" />
        </mxCell>
        <mxCell id="E8u7LmP7SIl81E1_KLwE-47" value="" style="swimlane;connectable=0;startSize=0;html=1;whiteSpace=wrap;collapsible=0;recursiveResize=0;expand=0;strokeColor=none;fillColor=none;" vertex="1" parent="E8u7LmP7SIl81E1_KLwE-2">
          <mxGeometry x="1454" width="20" height="250" as="geometry" />
        </mxCell>
        <mxCell id="E8u7LmP7SIl81E1_KLwE-48" value="" style="swimlane;connectable=0;startSize=0;html=1;whiteSpace=wrap;collapsible=0;recursiveResize=0;expand=0;" vertex="1" parent="E8u7LmP7SIl81E1_KLwE-2">
          <mxGeometry x="1474" width="20" height="250" as="geometry" />
        </mxCell>
        <mxCell id="E8u7LmP7SIl81E1_KLwE-49" value="BACK&lt;br&gt;" style="swimlane;horizontal=0;points=[[0,0.5],[1,0.5]];portConstraint=eastwest;startSize=40;html=1;whiteSpace=wrap;collapsible=0;recursiveResize=0;expand=0;" vertex="1" parent="E8u7LmP7SIl81E1_KLwE-1">
          <mxGeometry y="290" width="1493.75" height="348" as="geometry" />
        </mxCell>
        <mxCell id="E8u7LmP7SIl81E1_KLwE-50" value="" style="swimlane;connectable=0;startSize=0;html=1;whiteSpace=wrap;collapsible=0;recursiveResize=0;expand=0;" vertex="1" parent="E8u7LmP7SIl81E1_KLwE-49">
          <mxGeometry x="40" width="1414" height="348" as="geometry" />
        </mxCell>
        <mxCell id="E8u7LmP7SIl81E1_KLwE-51" value="" style="swimlane;connectable=0;startSize=0;html=1;whiteSpace=wrap;collapsible=0;recursiveResize=0;expand=0;" vertex="1" parent="E8u7LmP7SIl81E1_KLwE-49">
          <mxGeometry x="1454" width="20" height="348" as="geometry" />
        </mxCell>
        <mxCell id="E8u7LmP7SIl81E1_KLwE-52" value="" style="swimlane;connectable=0;startSize=0;html=1;whiteSpace=wrap;collapsible=0;recursiveResize=0;expand=0;" vertex="1" parent="E8u7LmP7SIl81E1_KLwE-49">
          <mxGeometry x="1474" width="20" height="348" as="geometry" />
        </mxCell>
        <mxCell id="E8u7LmP7SIl81E1_KLwE-8" value="Хранится в инфо о комнате" style="rounded=0;whiteSpace=wrap;html=1;fillColor=#f5f5f5;strokeColor=#666666;fontColor=#333333;" vertex="1" parent="1">
          <mxGeometry x="161" y="1623" width="166" height="60" as="geometry" />
        </mxCell>
        <mxCell id="E8u7LmP7SIl81E1_KLwE-9" value="" style="rounded=0;whiteSpace=wrap;html=1;fillColor=#dae8fc;strokeColor=#6c8ebf;" vertex="1" parent="1">
          <mxGeometry x="161.5" y="1689" width="166" height="60" as="geometry" />
        </mxCell>
        <mxCell id="E8u7LmP7SIl81E1_KLwE-10" value="" style="rounded=0;whiteSpace=wrap;html=1;fillColor=#fad9d5;strokeColor=#ae4132;" vertex="1" parent="1">
          <mxGeometry x="161.5" y="1755" width="166" height="60" as="geometry" />
        </mxCell>
        <mxCell id="E8u7LmP7SIl81E1_KLwE-15" value="-" style="rounded=0;whiteSpace=wrap;html=1;fillColor=#f5f5f5;strokeColor=#666666;fontColor=#333333;" vertex="1" parent="1">
          <mxGeometry x="537" y="1619" width="166" height="60" as="geometry" />
        </mxCell>
        <mxCell id="E8u7LmP7SIl81E1_KLwE-16" value="" style="edgeStyle=orthogonalEdgeStyle;rounded=0;orthogonalLoop=1;jettySize=auto;html=1;" edge="1" parent="1" source="E8u7LmP7SIl81E1_KLwE-17" target="E8u7LmP7SIl81E1_KLwE-18">
          <mxGeometry relative="1" as="geometry" />
        </mxCell>
        <mxCell id="E8u7LmP7SIl81E1_KLwE-17" value="После каждого голоса отпралять информацию:&lt;br&gt;1. Кто проголосовал&lt;br&gt;2. Результат голосования" style="rounded=0;whiteSpace=wrap;html=1;fillColor=#dae8fc;strokeColor=#6c8ebf;" vertex="1" parent="1">
          <mxGeometry x="537.5" y="1685" width="166" height="60" as="geometry" />
        </mxCell>
        <mxCell id="E8u7LmP7SIl81E1_KLwE-18" value="1. Уведомить пользоватей о госоловании&lt;br&gt;2. Инициировать перерисовку списка участников" style="rounded=0;whiteSpace=wrap;html=1;fillColor=#fad9d5;strokeColor=#ae4132;" vertex="1" parent="1">
          <mxGeometry x="537.5" y="1751" width="166" height="75" as="geometry" />
        </mxCell>
        <mxCell id="E8u7LmP7SIl81E1_KLwE-23" value="1. Меняеся список игроков&lt;br&gt;2. Инициализиется перерисовка списка на клиенте" style="rounded=0;whiteSpace=wrap;html=1;fillColor=#f5f5f5;strokeColor=#666666;fontColor=#333333;" vertex="1" parent="1">
          <mxGeometry x="351" y="1623" width="166" height="60" as="geometry" />
        </mxCell>
        <mxCell id="E8u7LmP7SIl81E1_KLwE-24" value="1.&amp;nbsp;&lt;span style=&quot;color: rgb(51 , 51 , 51)&quot;&gt;Произвести запись о изменении статуса&lt;br&gt;2. Инициализировать вызов на клиенте уведомления о прекращении игры&lt;br&gt;&lt;/span&gt;" style="rounded=0;whiteSpace=wrap;html=1;fillColor=#dae8fc;strokeColor=#6c8ebf;" vertex="1" parent="1">
          <mxGeometry x="351.5" y="1689" width="166" height="74" as="geometry" />
        </mxCell>
        <mxCell id="E8u7LmP7SIl81E1_KLwE-25" value="" style="rounded=0;whiteSpace=wrap;html=1;fillColor=#fad9d5;strokeColor=#ae4132;" vertex="1" parent="1">
          <mxGeometry x="351.5" y="1780" width="166" height="37" as="geometry" />
        </mxCell>
        <mxCell id="E8u7LmP7SIl81E1_KLwE-30" value="-" style="rounded=0;whiteSpace=wrap;html=1;fillColor=#f5f5f5;strokeColor=#666666;fontColor=#333333;" vertex="1" parent="1">
          <mxGeometry x="726" y="1619" width="166" height="60" as="geometry" />
        </mxCell>
        <mxCell id="E8u7LmP7SIl81E1_KLwE-31" value="Инициализируется отсчет в клиенте после запуска голсования" style="rounded=0;whiteSpace=wrap;html=1;fillColor=#dae8fc;strokeColor=#6c8ebf;" vertex="1" parent="1">
          <mxGeometry x="726.5" y="1685" width="166" height="60" as="geometry" />
        </mxCell>
        <mxCell id="E8u7LmP7SIl81E1_KLwE-32" value="произвести расчт и вернуть статистику по запросу клиента" style="rounded=0;whiteSpace=wrap;html=1;fillColor=#fad9d5;strokeColor=#ae4132;" vertex="1" parent="1">
          <mxGeometry x="726.5" y="1751" width="166" height="60" as="geometry" />
        </mxCell>
        <mxCell id="E8u7LmP7SIl81E1_KLwE-37" value="1. Иницилизировать перерисовку score" style="rounded=0;whiteSpace=wrap;html=1;fillColor=#f5f5f5;strokeColor=#666666;fontColor=#333333;" vertex="1" parent="1">
          <mxGeometry x="913" y="1621" width="166" height="60" as="geometry" />
        </mxCell>
        <mxCell id="E8u7LmP7SIl81E1_KLwE-38" value="-" style="rounded=0;whiteSpace=wrap;html=1;fillColor=#dae8fc;strokeColor=#6c8ebf;" vertex="1" parent="1">
          <mxGeometry x="913.5" y="1687" width="166" height="60" as="geometry" />
        </mxCell>
        <mxCell id="E8u7LmP7SIl81E1_KLwE-39" value="-" style="rounded=0;whiteSpace=wrap;html=1;fillColor=#fad9d5;strokeColor=#ae4132;" vertex="1" parent="1">
          <mxGeometry x="913.5" y="1753" width="166" height="60" as="geometry" />
        </mxCell>
        <mxCell id="E8u7LmP7SIl81E1_KLwE-56" value="-" style="rounded=0;whiteSpace=wrap;html=1;fillColor=#fad7ac;strokeColor=#b46504;" vertex="1" parent="1">
          <mxGeometry x="540.5" y="1835" width="166" height="48" as="geometry" />
        </mxCell>
        <mxCell id="E8u7LmP7SIl81E1_KLwE-57" value="Game result" style="shape=table;childLayout=tableLayout;rowLines=0;columnLines=0;startSize=40;html=1;whiteSpace=wrap;collapsible=0;recursiveResize=0;expand=0;fontStyle=1;fillColor=#fad7ac;strokeColor=#b46504;" vertex="1" parent="1">
          <mxGeometry x="108" y="1949" width="1493.75" height="638" as="geometry" />
        </mxCell>
        <mxCell id="E8u7LmP7SIl81E1_KLwE-58" value="FRONT" style="swimlane;horizontal=0;points=[[0,0.5],[1,0.5]];portConstraint=eastwest;startSize=40;html=1;whiteSpace=wrap;collapsible=0;recursiveResize=0;expand=0;" vertex="1" parent="E8u7LmP7SIl81E1_KLwE-57">
          <mxGeometry y="40" width="1493.75" height="250" as="geometry" />
        </mxCell>
        <mxCell id="E8u7LmP7SIl81E1_KLwE-59" value="" style="swimlane;connectable=0;startSize=0;html=1;whiteSpace=wrap;collapsible=0;recursiveResize=0;expand=0;fillColor=#fad7ac;strokeColor=#b46504;" vertex="1" parent="E8u7LmP7SIl81E1_KLwE-58">
          <mxGeometry x="40" width="1414" height="250" as="geometry" />
        </mxCell>
        <mxCell id="E8u7LmP7SIl81E1_KLwE-60" value="&lt;div style=&quot;box-sizing: border-box ; width: 100% ; background: #e4e4e4 ; padding: 2px&quot;&gt;Инфо о игре&lt;/div&gt;" style="verticalAlign=top;align=left;overflow=fill;html=1;fillColor=#d5e8d4;strokeColor=#82b366;" vertex="1" parent="E8u7LmP7SIl81E1_KLwE-59">
          <mxGeometry x="15" y="13" width="179" height="565" as="geometry" />
        </mxCell>
        <mxCell id="E8u7LmP7SIl81E1_KLwE-61" value="Запрос с серавера данных для данной команты" style="rounded=0;whiteSpace=wrap;html=1;fillColor=#f5f5f5;strokeColor=#666666;fontColor=#333333;" vertex="1" parent="E8u7LmP7SIl81E1_KLwE-59">
          <mxGeometry x="21" y="38" width="166" height="60" as="geometry" />
        </mxCell>
        <mxCell id="E8u7LmP7SIl81E1_KLwE-62" value="Отрисовка в виде карточек&lt;br&gt;&quot;заголовок + список карт с процентами&quot;" style="rounded=0;whiteSpace=wrap;html=1;fillColor=#dae8fc;strokeColor=#6c8ebf;" vertex="1" parent="E8u7LmP7SIl81E1_KLwE-59">
          <mxGeometry x="21" y="104" width="166" height="60" as="geometry" />
        </mxCell>
        <mxCell id="E8u7LmP7SIl81E1_KLwE-63" value="" style="rounded=0;whiteSpace=wrap;html=1;fillColor=#fad9d5;strokeColor=#ae4132;" vertex="1" parent="E8u7LmP7SIl81E1_KLwE-59">
          <mxGeometry x="21.5" y="170" width="166" height="60" as="geometry" />
        </mxCell>
        <mxCell id="E8u7LmP7SIl81E1_KLwE-81" value="" style="swimlane;connectable=0;startSize=0;html=1;whiteSpace=wrap;collapsible=0;recursiveResize=0;expand=0;strokeColor=none;fillColor=none;" vertex="1" parent="E8u7LmP7SIl81E1_KLwE-58">
          <mxGeometry x="1454" width="20" height="250" as="geometry" />
        </mxCell>
        <mxCell id="E8u7LmP7SIl81E1_KLwE-82" value="" style="swimlane;connectable=0;startSize=0;html=1;whiteSpace=wrap;collapsible=0;recursiveResize=0;expand=0;" vertex="1" parent="E8u7LmP7SIl81E1_KLwE-58">
          <mxGeometry x="1474" width="20" height="250" as="geometry" />
        </mxCell>
        <mxCell id="E8u7LmP7SIl81E1_KLwE-83" value="BACK&lt;br&gt;" style="swimlane;horizontal=0;points=[[0,0.5],[1,0.5]];portConstraint=eastwest;startSize=40;html=1;whiteSpace=wrap;collapsible=0;recursiveResize=0;expand=0;" vertex="1" parent="E8u7LmP7SIl81E1_KLwE-57">
          <mxGeometry y="290" width="1493.75" height="348" as="geometry" />
        </mxCell>
        <mxCell id="E8u7LmP7SIl81E1_KLwE-84" value="" style="swimlane;connectable=0;startSize=0;html=1;whiteSpace=wrap;collapsible=0;recursiveResize=0;expand=0;" vertex="1" parent="E8u7LmP7SIl81E1_KLwE-83">
          <mxGeometry x="40" width="1414" height="348" as="geometry" />
        </mxCell>
        <mxCell id="E8u7LmP7SIl81E1_KLwE-85" value="" style="swimlane;connectable=0;startSize=0;html=1;whiteSpace=wrap;collapsible=0;recursiveResize=0;expand=0;" vertex="1" parent="E8u7LmP7SIl81E1_KLwE-83">
          <mxGeometry x="1454" width="20" height="348" as="geometry" />
        </mxCell>
        <mxCell id="E8u7LmP7SIl81E1_KLwE-86" value="" style="swimlane;connectable=0;startSize=0;html=1;whiteSpace=wrap;collapsible=0;recursiveResize=0;expand=0;" vertex="1" parent="E8u7LmP7SIl81E1_KLwE-83">
          <mxGeometry x="1474" width="20" height="348" as="geometry" />
        </mxCell>
        <mxCell id="E8u7LmP7SIl81E1_KLwE-87" value="Возвразает список issue и пары значений &lt;br&gt;&quot;карта: процент&quot;" style="rounded=0;whiteSpace=wrap;html=1;fillColor=#f5f5f5;strokeColor=#666666;fontColor=#333333;" vertex="1" parent="1">
          <mxGeometry x="166" y="2281" width="166" height="60" as="geometry" />
        </mxCell>
        <mxCell id="E8u7LmP7SIl81E1_KLwE-88" value="" style="rounded=0;whiteSpace=wrap;html=1;fillColor=#dae8fc;strokeColor=#6c8ebf;" vertex="1" parent="1">
          <mxGeometry x="166.5" y="2347" width="166" height="60" as="geometry" />
        </mxCell>
        <mxCell id="E8u7LmP7SIl81E1_KLwE-89" value="" style="rounded=0;whiteSpace=wrap;html=1;fillColor=#fad9d5;strokeColor=#ae4132;" vertex="1" parent="1">
          <mxGeometry x="166.5" y="2413" width="166" height="60" as="geometry" />
        </mxCell>
      </root>
    </mxGraphModel>
  </diagram>
</mxfile>
